:version 1.10
:name ASF
:units
  mass 1
  length 1
  angle deg
:documentation
  ASF file generated by Kaydara
:root
  axis xyz
  order  tx ty tz rx ry rz
  position 0 0 0
  orientation 0 0 0
:bonedata
  begin
    id 1
    name lfemurDummy
    direction 0.61522 -0.761478 0.204097
    length 5.68318
    axis 0 -0 0 xyz
  end
  begin
    id 2
    name lfemur
    direction 0.34202 -0.939693 -5.84747e-008
    length 16.9147
    axis 0 -0 20 xyz
    dof rx ry rz
    limits( -inf , inf )
( -inf , inf )
( -inf , inf )

  end
  begin
    id 3
    name ltibia
    direction 0.34202 -0.939693 1.20839e-009
    length 18.0532
    axis 0 -0 20 xyz
    dof rz ry rx
    limits( -inf , inf )
( -inf , inf )
( -inf , inf )

  end
  begin
    id 4
    name lfoot
    direction 0.0841971 -0.23133 0.969225
    length 5.23822
    axis -90 7.62852e-016 20 xyz
    dof ry rx rz
    limits( -inf , inf )
( -inf , inf )
( -inf , inf )

  end
  begin
    id 5
    name ltoes
    direction 0 0 0
    length 0
    axis 0 0 0 xyz
    dof rz ry rx
    limits( -inf , inf )
( -inf , inf )
( -inf , inf )

  end
  begin
    id 6
    name rfemurDummy
    direction -0.625247 -0.75382 0.202044
    length 5.74091
    axis 0 -0 0 xyz
  end
  begin
    id 7
    name rfemur
    direction -0.34202 -0.939693 -1.47013e-008
    length 16.4922
    axis 0 -0 -20 xyz
    dof rx ry rz
    limits( -inf , inf )
( -inf , inf )
( -inf , inf )

  end
  begin
    id 8
    name rtibia
    direction -0.34202 -0.939693 -7.74345e-010
    length 18.2421
    axis 0 -0 -20 xyz
    dof rz ry rx
    limits( -inf , inf )
( -inf , inf )
( -inf , inf )

  end
  begin
    id 9
    name rfoot
    direction -0.124331 -0.341598 0.931586
    length 5.45787
    axis -90 -7.62852e-016 -20 xyz
    dof ry rx rz
    limits( -inf , inf )
( -inf , inf )
( -inf , inf )

  end
  begin
    id 10
    name rtoes
    direction 0 0 0
    length 0
    axis 0 0 0 xyz
    dof rz ry rx
    limits( -inf , inf )
( -inf , inf )
( -inf , inf )

  end
  begin
    id 11
    name lowerbackDummy
    direction 0 0 0
    length 0
    axis 0 -0 0 xyz
  end
  begin
    id 12
    name lowerback
    direction -0.0218484 0.994884 -0.0986304
    length 4.45607
    axis 0 -0 0 xyz
    dof rx ry rz
    limits( -inf , inf )
( -inf , inf )
( -inf , inf )

  end
  begin
    id 13
    name upperback
    direction -0.00973057 0.999717 -0.0217111
    length 4.47449
    axis 0 -0 0 xyz
    dof rx ry rz
    limits( -inf , inf )
( -inf , inf )
( -inf , inf )

  end
  begin
    id 14
    name thorax
    direction -0.000928171 0.999699 0.0245198
    length 4.50973
    axis 0 -0 0 xyz
    dof rx ry rz
    limits( -inf , inf )
( -inf , inf )
( -inf , inf )

  end
  begin
    id 15
    name rclavicle
    direction -0.9009 0.425937 -0.0834055
    length 7.28587
    axis 0 -0 0 xyz
    dof rx ry rz
    limits( -inf , inf )
( -inf , inf )
( -inf , inf )

  end
  begin
    id 16
    name rhumerus
    direction -1 -2.23604e-007 -1.42637e-007
    length 13.5704
    axis 180 30 90 xyz
    dof rx ry rz
    limits( -inf , inf )
( -inf , inf )
( -inf , inf )

  end
  begin
    id 17
    name rradius
    direction -1 5.68281e-008 -4.4952e-007
    length 8.06782
    axis 180 30 90 xyz
    dof rz ry rx
    limits( -inf , inf )
( -inf , inf )
( -inf , inf )

  end
  begin
    id 18
    name rwrist
    direction -1 1.51393e-007 1.38143e-007
    length 4.03391
    axis -90 -90 0 xyz
    dof rz rx ry
    limits( -inf , inf )
( -inf , inf )
( -inf , inf )

  end
  begin
    id 19
    name rthumb
    direction 0 0 0
    length 0
    axis 0 0 0 xyz
    dof ry rx rz
    limits( -inf , inf )
( -inf , inf )
( -inf , inf )

  end
  begin
    id 20
    name rhand
    direction -1 -3.34077e-007 -5.59631e-007
    length 1.29744
    axis -90 -90 0 xyz
    dof ry rx rz
    limits( -inf , inf )
( -inf , inf )
( -inf , inf )

  end
  begin
    id 21
    name rfingers
    direction 0 0 0
    length 0
    axis 0 0 0 xyz
    dof rz ry rx
    limits( -inf , inf )
( -inf , inf )
( -inf , inf )

  end
  begin
    id 22
    name lclavicle
    direction 0.940017 0.332249 -0.0773232
    length 8.29589
    axis 0 -0 0 xyz
    dof rx ry rz
    limits( -inf , inf )
( -inf , inf )
( -inf , inf )

  end
  begin
    id 23
    name lhumerus
    direction 1 7.41158e-008 -1.44768e-008
    length 12.0042
    axis 180 -30 -90 xyz
    dof rx ry rz
    limits( -inf , inf )
( -inf , inf )
( -inf , inf )

  end
  begin
    id 24
    name lradius
    direction 1 -1.32972e-007 3.10821e-007
    length 8.1902
    axis 180 -30 -90 xyz
    dof rz ry rx
    limits( -inf , inf )
( -inf , inf )
( -inf , inf )

  end
  begin
    id 25
    name lwrist
    direction 1 3.08957e-007 4.01394e-007
    length 4.09509
    axis -90 90 0 xyz
    dof rz rx ry
    limits( -inf , inf )
( -inf , inf )
( -inf , inf )

  end
  begin
    id 26
    name lthumb
    direction 0 0 0
    length 0
    axis 0 0 0 xyz
    dof ry rx rz
    limits( -inf , inf )
( -inf , inf )
( -inf , inf )

  end
  begin
    id 27
    name lhand
    direction 1 -1.64125e-007 -6.99514e-007
    length 1.37229
    axis -90 90 0 xyz
    dof ry rx rz
    limits( -inf , inf )
( -inf , inf )
( -inf , inf )

  end
  begin
    id 28
    name lfingers
    direction 0 0 0
    length 0
    axis 0 0 0 xyz
    dof rz ry rx
    limits( -inf , inf )
( -inf , inf )
( -inf , inf )

  end
  begin
    id 29
    name lowerneck
    direction -0.030798 0.998024 0.0547665
    length 3.93918
    axis 0 -0 0 xyz
    dof rx ry rz
    limits( -inf , inf )
( -inf , inf )
( -inf , inf )

  end
  begin
    id 30
    name upperneck
    direction 0.0531588 0.996611 -0.0627736
    length 3.95491
    axis 0 -0 0 xyz
    dof rx ry rz
    limits( -inf , inf )
( -inf , inf )
( -inf , inf )

  end
  begin
    id 31
    name head
    direction 0 0 0
    length 0
    axis 0 0 0 xyz
    dof rx ry rz
    limits( -inf , inf )
( -inf , inf )
( -inf , inf )

  end
:hierarchy
  begin
    root lfemurDummy rfemurDummy lowerbackDummy
    lfemurDummy lfemur
    lfemur ltibia
    ltibia lfoot
    lfoot ltoes
    rfemurDummy rfemur
    rfemur rtibia
    rtibia rfoot
    rfoot rtoes
    lowerbackDummy lowerback
    lowerback upperback
    upperback thorax
    thorax rclavicle lclavicle lowerneck
    rclavicle rhumerus
    rhumerus rradius
    rradius rwrist
    rwrist rthumb rhand
    rhand rfingers
    lclavicle lhumerus
    lhumerus lradius
    lradius lwrist
    lwrist lthumb lhand
    lhand lfingers
    lowerneck upperneck
    upperneck head
  end

:SAMPLES-PER-SECOND 30
:FULLY-SPECIFIED
:DEGREES
47
root  10.33448873 37.5042232 -12.6257994 -1.082559943 -46.86029816 0.06872989982
lowerback  8.996029854 0.5281249881 -1.664289951
upperback  2.872809887 0.5226759911 0.3115170002
thorax  -2.08333993 0.2415509969 1.202600002
lowerneck  -4.002560139 4.639490128 -6.73555994
upperneck  31.71610069 5.584640026 5.019710064
head  10.41049957 2.111129999 3.468620062
lclavicle  0 -9.442270133e-015 7.951389973e-016
lhumerus  6.442669868 -8.974459648 69.94290161
lradius  2.84378888e-031 -2.093253172e-031 143.6439972
lwrist  -7.062250077e-031 -3.531125038e-031 5.11398983
lhand  -1.496451383e-031 -27.76390076 20.11240005
lfingers  90 7.125020027 -90
lthumb  89.89689403 5.08795885 91.16245106
rclavicle  0 -9.442270133e-015 7.951389973e-016
rhumerus  12.40849972 12.38300037 -73.66390228
rradius  -2.913230574e-031 1.995477803e-031 145.5899963
rwrist  1.412450015e-030 -0 -17.77260017
rhand  -7.920061211e-032 -33.2840004 9.303460121
rfingers  -90 -7.125020027 -90
rthumb  -92.93752616 -24.25625642 -97.11982154
rfemur  -11.80589962 11.8835001 9.085559845
rtibia  -0 0 53.83140182
rfoot  -0 -31.80220032 -7.645860195
rtoes  5.373923086 19.29304026 -105.8922705
lfemur  -26.88330078 2.473720074 -3.296730042
ltibia  -0 0 67.87169647
lfoot  9.033485005e-032 -12.24969959 -5.758240223
ltoes  -4.250644065 -19.5611806 -102.515957
48
root  10.40868909 37.53511023 -12.62779987 -1.418259978 -46.87269974 0.3869209886
lowerback  9.144060135 0.5290489793 -1.791170001
upperback  3.077179909 0.5016850233 0.100198999
thorax  -1.952080011 0.2271579951 1.057790041
lowerneck  -3.400710106 4.622769833 -6.865139961
upperneck  31.75860023 5.569069862 4.811860085
head  10.31849957 2.056329966 3.394609928
lclavicle  0 -9.442270133e-015 7.951389973e-016
lhumerus  5.965119839 -8.996520042 70.20330048
lradius  2.840497433e-031 -2.09771742e-031 143.5540009
lwrist  -7.062250077e-031 -1.765562519e-031 5.096109867
lhand  -1.496451383e-031 -27.76390076 20.11240005
lfingers  90 7.125020027 -90
lthumb  89.89689403 5.08795885 91.16245106
rclavicle  0 -9.442270133e-015 7.951389973e-016
rhumerus  11.54489994 12.38409996 -74.21150208
rradius  -2.906527272e-031 2.005228978e-031 145.397995
rwrist  7.062250077e-031 -0 -18.27779961
rhand  -7.920061211e-032 -33.2840004 9.303460121
rfingers  -90 -7.125020027 -90
rthumb  -92.93752616 -24.25625642 -97.11982154
rfemur  -11.62269974 12.0557003 8.824110031
rtibia  -0 0 53.53350067
rfoot  -0 -31.81399918 -7.994209766
rtoes  5.373923086 19.29304026 -105.8922705
lfemur  -27.46179962 2.676179886 -3.172060013
ltibia  -0 0 68.29060364
lfoot  -0 -10.33979988 -7.205029964
ltoes  -4.250644065 -19.5611806 -102.515957
49
root  10.49042199 37.58466525 -12.59984444 -1.910979986 -46.95299911 0.8901039958
lowerback  9.237819672 0.5454890132 -1.956760049
upperback  3.266520023 0.4981729984 -0.1511210054
thorax  -1.806849957 0.2214570045 0.891858995
lowerneck  -2.55527997 4.622960091 -7.089509964
upperneck  31.75300026 5.547780037 4.651150227
head  10.15789986 1.993119955 3.343209982
lclavicle  0 -9.442270133e-015 7.951389973e-016
lhumerus  5.612919807 -8.703889847 70.45700073
lradius  2.829290264e-031 -2.112808709e-031 143.2489929
lwrist  -7.062250077e-031 -1.765562519e-031 5.63270998
lhand  -1.496451383e-031 -27.76390076 20.11240005
lfingers  90 7.125020027 -90
lthumb  89.89689403 5.08795885 91.16245106
rclavicle  0 -9.442270133e-015 7.951389973e-016
rhumerus  10.69219971 12.27799988 -74.80639648
rradius  -2.898806295e-031 2.016374494e-031 145.1779938
rwrist  1.412450015e-030 -0 -19.17160034
rhand  -7.920061211e-032 -33.2840004 9.303460121
rfingers  -90 -7.125020027 -90
rthumb  -92.93752616 -24.25625642 -97.11982154
rfemur  -11.34599972 12.3118 8.407779694
rtibia  -0 0 53.1106987
rfoot  -0 -31.71159935 -8.389570236
rtoes  5.373923086 19.29304026 -105.8922705
lfemur  -27.93580055 2.956530094 -3.203609943
ltibia  -0 0 68.62030029
lfoot  -0 -8.189990044 -8.829999924
ltoes  -4.250644065 -19.5611806 -102.515957
50
root  10.58191089 37.6542219 -12.55437746 -2.036230087 -47.16790009 1.079300046
lowerback  9.151089668 0.5792490244 -1.868909955
upperback  3.440069914 0.5469350219 -0.3428789973
thorax  -1.578590035 0.2424740046 0.6407650113
lowerneck  -1.572739959 4.673089981 -7.305490017
upperneck  31.68110085 5.597519875 4.412899971
head  9.948010445 1.957440019 3.261850119
lclavicle  0 -9.442270133e-015 7.951389973e-016
lhumerus  5.431359768 -8.075260162 70.646698
lradius  2.811080843e-031 -2.136976492e-031 142.7579956
lwrist  -7.062250077e-031 -0 6.31441021
lhand  -1.496451383e-031 -27.76390076 20.11240005
lfingers  90 7.125020027 -90
lthumb  89.89689403 5.08795885 91.16245106
rclavicle  0 -9.442270133e-015 7.951389973e-016
rhumerus  9.973640442 12.18319988 -75.35949707
rradius  -2.885724938e-031 2.035051749e-031 144.8079987
rwrist  7.062250077e-031 -0 -19.79360008
rhand  -7.920061211e-032 -33.2840004 9.303460121
rfingers  -90 -7.125020027 -90
rthumb  -92.93752616 -24.25625642 -97.11982154
rfemur  -11.23589993 12.64449978 8.180430412
rtibia  -0 0 52.61669922
rfoot  -0 -31.42740059 -8.757760048
rtoes  5.373923086 19.29304026 -105.8922705
lfemur  -28.49169922 3.467200041 -2.98439002
ltibia  -0 0 68.8710022
lfoot  -0 -5.881659985 -10.62170029
ltoes  -4.250644065 -19.5611806 -102.515957
51
root  10.68951089 37.74666674 -12.49659981 -2.009160042 -47.50519943 1.130970001
lowerback  9.109689713 0.6520969868 -1.68900001
upperback  3.557590008 0.6546959877 -0.5259050131
thorax  -1.433099985 0.295273006 0.3407610059
lowerneck  -0.6281599998 4.754350185 -7.473380089
upperneck  31.79210091 5.659249783 4.239409924
head  9.813879967 1.932420015 3.204289913
lclavicle  0 -9.442270133e-015 7.951389973e-016
lhumerus  5.276329994 -7.539380074 70.83049774
lradius  2.790777992e-031 -2.16342373e-031 142.2169952
lwrist  -7.062250077e-031 -0 6.684790134
lhand  -1.496451383e-031 -27.76390076 20.11240005
lfingers  90 7.125020027 -90
lthumb  89.89689403 5.08795885 91.16245106
rclavicle  0 -9.442270133e-015 7.951389973e-016
rhumerus  9.34239006 12.0951004 -75.89240265
rradius  -2.869437576e-031 2.057953361e-031 144.352005
rwrist  7.062250077e-031 8.827812596e-032 -20.28230095
rhand  -7.920061211e-032 -33.2840004 9.303460121
rfingers  -90 -7.125020027 -90
rthumb  -92.93752616 -24.25625642 -97.11982154
rfemur  -11.24670029 12.94709969 8.014389992
rtibia  -0 0 52.09960175
rfoot  -0 -30.93659973 -9.16821003
rtoes  5.373923086 19.29304026 -105.8922705
lfemur  -29.03470039 4.031420231 -2.679409981
ltibia  -0 0 69.01519775
lfoot  -0 -3.602250099 -12.4229002
ltoes  -4.250644065 -19.5611806 -102.515957
52
root  10.81173364 37.8506668 -12.42360017 -2.065129995 -47.83549881 1.416730046
lowerback  9.033200264 0.6904820204 -1.662889957
upperback  3.617949963 0.7044469714 -0.7248349786
thorax  -1.326769948 0.3196569979 0.1170430034
lowerneck  0.2444760054 4.930550098 -7.747980118
upperneck  32.12779999 5.832620144 4.165400028
head  9.764300346 1.947119951 3.216840029
lclavicle  0 -9.442270133e-015 7.951389973e-016
lhumerus  5.109539986 -6.862539768 70.98709869
lradius  2.769997137e-031 -2.189968013e-031 141.6699982
lwrist  -7.062250077e-031 -0 7.041289806
lhand  -1.496451383e-031 -27.76390076 20.11240005
lfingers  90 7.125020027 -90
lthumb  89.89689403 5.08795885 91.16245106
rclavicle  0 -9.442270133e-015 7.951389973e-016
rhumerus  8.948740005 12.08839989 -76.27020264
rradius  -2.847839113e-031 2.087739549e-031 143.7550049
rwrist  0 -8.827812596e-032 -20.79680061
rhand  -7.920061211e-032 -33.2840004 9.303460121
rfingers  -90 -7.125020027 -90
rthumb  -92.93752616 -24.25625642 -97.11982154
rfemur  -11.36639977 13.17520046 7.611680031
rtibia  -0 0 51.57960129
rfoot  -0 -30.38369942 -9.48099041
rtoes  5.373923086 19.29304026 -105.8922705
lfemur  -29.58679962 4.509789944 -2.600759983
ltibia  -0 0 69.0177002
lfoot  -0 -1.903220057 -14.26259995
ltoes  -4.250644065 -19.5611806 -102.515957
53
root  10.94697742 37.97133438 -12.33033308 -2.178600073 -48.21039963 1.85205996
lowerback  8.896369934 0.7197859883 -1.683069944
upperback  3.669490099 0.7397500277 -0.9435229897
thorax  -1.196069956 0.3367579877 -0.09874329716
lowerneck  1.101449966 5.132599831 -8.054470062
upperneck  32.5530014 6.074530125 3.947900057
head  9.756119728 1.969689965 3.190789938
lclavicle  0 -9.442270133e-015 7.951389973e-016
lhumerus  5.044559956 -6.005730152 71.05999756
lradius  2.749504985e-031 -2.215641302e-031 141.1369934
lwrist  -7.062250077e-031 -0 7.699669838
lhand  -1.496451383e-031 -27.76390076 20.11240005
lfingers  90 7.125020027 -90
lthumb  89.89689403 5.08795885 91.16245106
rclavicle  0 -9.442270133e-015 7.951389973e-016
rhumerus  8.787739754 12.07129955 -76.52490234
rradius  -2.821416352e-031 2.12331199e-031 143.0359955
rwrist  0 1.765562519e-031 -21.11680031
rhand  -7.920061211e-032 -33.2840004 9.303460121
rfingers  -90 -7.125020027 -90
rthumb  -92.93752616 -24.25625642 -97.11982154
rfemur  -11.5387001 13.47649956 7.044690132
rtibia  -0 0 51.05580139
rfoot  -0 -29.77230072 -9.621760368
rtoes  5.373923086 19.29304026 -105.8922705
lfemur  -30.07939911 4.952950001 -2.664269924
ltibia  -0 0 68.8864975
lfoot  -0 -0.8242250085 -16.10790062
ltoes  -4.250644065 -19.5611806 -102.515957
54
root  11.09128862 38.12577856 -12.21968884 -2.289750099 -48.74069977 2.203150034
lowerback  8.829099655 0.8588309884 -1.631700039
upperback  3.753550053 0.9236069918 -1.199579954
thorax  -1.069049954 0.4283159971 -0.4078589976
lowerneck  1.940420032 5.228340149 -7.988520145
upperneck  33.06489944 6.211440086 3.439229965
head  9.820670128 1.952880025 2.995110035
lclavicle  0 -9.442270133e-015 7.951389973e-016
lhumerus  5.183460236 -5.275690079 71.00319672
lradius  2.730612859e-031 -2.238883081e-031 140.651001
lwrist  -7.062250077e-031 -1.765562519e-031 8.561349869
lhand  -1.496451383e-031 -27.76390076 20.11240005
lfingers  90 7.125020027 -90
lthumb  89.89689403 5.08795885 91.16245106
rclavicle  0 -9.442270133e-015 7.951389973e-016
rhumerus  8.788319588 11.74860001 -76.72889709
rradius  -2.794135333e-031 2.159085866e-031 142.3059998
rwrist  1.412450015e-030 1.765562519e-031 -21.34900093
rhand  -7.920061211e-032 -33.2840004 9.303460121
rfingers  -90 -7.125020027 -90
rthumb  -92.93752616 -24.25625642 -97.11982154
rfemur  -11.71990013 13.80659962 6.516180038
rtibia  -0 0 50.51060104
rfoot  -0 -28.95229912 -9.769519806
rtoes  5.373923086 19.29304026 -105.8922705
lfemur  -30.36860085 5.406119823 -2.67512989
ltibia  -0 0 68.64279938
lfoot  -0 0.0332359001 -17.74550056
ltoes  -4.250644065 -19.5611806 -102.515957
